HIERARCHY
ROOT SpineBase
{
  OFFSET 0.000000 0.000000 0.000000
  CHANNELS 6 Xposition Yposition Zposition Zrotation Xrotation Yrotation
  JOINT SpineMid
  {
    OFFSET 0.000000 33.081085 0.000000
    CHANNELS 3 Zrotation Xrotation Yrotation
    JOINT SpineShoulder
    {
      OFFSET 0.181509 24.524497 -0.750235
      CHANNELS 3 Zrotation Xrotation Yrotation
      JOINT Neck
      {
        OFFSET 0.106517 8.083777 -0.576467
        CHANNELS 3 Zrotation Xrotation Yrotation
        JOINT Head
        {
          OFFSET 5.502071 12.393260 4.475905
          CHANNELS 3 Zrotation Xrotation Yrotation
          End Site
          {
            OFFSET 0 0 0
          }
        }
      }
      JOINT ShoulderLeft
      {
        OFFSET -10.256908 -3.666558 -11.239281
        CHANNELS 3 Zrotation Xrotation Yrotation
        JOINT ElbowLeft
        {
          OFFSET -6.169178 -25.585759 -6.030828
          CHANNELS 3 Zrotation Xrotation Yrotation
          JOINT WristLeft
          {
            OFFSET 0.184025 -24.460393 -4.960887
            CHANNELS 3 Zrotation Xrotation Yrotation
            JOINT HandLeft
            {
              OFFSET -0.850470 -7.241020 -0.952379
              CHANNELS 3 Zrotation Xrotation Yrotation
              JOINT HandTipLeft
              {
                OFFSET 2.387168 -7.324042 -1.860723
                CHANNELS 3 Zrotation Xrotation Yrotation
                End Site
                {
                  OFFSET 0 0 0
                }
              }
              JOINT ThumbLeft
              {
                OFFSET -1.801119 -2.466532 -2.920384
                CHANNELS 3 Zrotation Xrotation Yrotation
                End Site
                {
                  OFFSET 0 0 0
                }
              }
            }
          }
        }
      }
      JOINT ShoulderRight
      {
        OFFSET 11.674417 -5.050044 11.085167
        CHANNELS 3 Zrotation Xrotation Yrotation
        JOINT ElbowRight
        {
          OFFSET 3.468334 -24.681776 7.594386
          CHANNELS 3 Zrotation Xrotation Yrotation
          JOINT WristRight
          {
            OFFSET 2.941477 -26.218822 1.716536
            CHANNELS 3 Zrotation Xrotation Yrotation
            JOINT HandRight
            {
              OFFSET 0.090747 -11.925220 3.749988
              CHANNELS 3 Zrotation Xrotation Yrotation
              JOINT HandTipRight
              {
                OFFSET 1.024928 -3.388187 -1.084668
                CHANNELS 3 Zrotation Xrotation Yrotation
                End Site
                {
                  OFFSET 0 0 0
                }
              }
              JOINT ThumbRight
              {
                OFFSET -1.929763 -0.415528 -2.379327
                CHANNELS 3 Zrotation Xrotation Yrotation
                End Site
                {
                  OFFSET 0 0 0
                }
              }
            }
          }
        }
      }
    }
  }
  JOINT HipLeft
  {
    OFFSET -4.598075 1.563572 -8.345706
    CHANNELS 3 Zrotation Xrotation Yrotation
    JOINT KneeLeft
    {
      OFFSET -9.799413 -27.068018 -20.994494
      CHANNELS 3 Zrotation Xrotation Yrotation
      JOINT AnkleLeft
      {
        OFFSET -3.759215 -40.917573 16.184477
        CHANNELS 3 Zrotation Xrotation Yrotation
        JOINT FootLeft
        {
          OFFSET 10.033849 -2.558984 -11.326271
          CHANNELS 3 Zrotation Xrotation Yrotation
          End Site
          {
            OFFSET 0 0 0
          }
        }
      }
    }
  }
  JOINT HipRight
  {
    OFFSET 5.241293 -0.194030 0.976646
    CHANNELS 3 Zrotation Xrotation Yrotation
    JOINT KneeRight
    {
      OFFSET 1.194518 -35.079575 4.578546
      CHANNELS 3 Zrotation Xrotation Yrotation
      JOINT AnkleRight
      {
        OFFSET -3.952059 -35.976006 8.962378
        CHANNELS 3 Zrotation Xrotation Yrotation
        JOINT FootRight
        {
          OFFSET 2.716498 -8.225091 -4.805642
          CHANNELS 3 Zrotation Xrotation Yrotation
          End Site
          {
            OFFSET 0 0 0
          }
        }
      }
    }
  }
}
MOTION
Frames: 15
Frame Time: 0.033333
-39.543020 78.876170 369.254842 -13.097366 -32.064025 -21.050714 0.747962 2.495566 16.970920 0.084921 -0.954039 -0.331097 24.155979 -9.940926 10.060223 0.000000 0.000000 0.000000 4.855637 21.509678 3.601313 39.673422 0.418960 -14.289207 5.982801 11.070283 -3.550098 -42.941725 -18.235281 0.344636 0.000000 0.000000 0.000000 0.000000 0.000000 0.000000 20.964513 62.735370 -4.109614 -19.165719 11.628413 -6.826210 -15.054083 4.466888 -21.800622 0.080147 -29.248321 20.509107 0.000000 0.000000 0.000000 0.000000 0.000000 0.000000 38.322770 57.335082 -37.271188 -28.427709 -33.817414 11.465717 -14.643835 -35.626071 17.977287 0.000000 0.000000 0.000000 -156.356919 66.231214 174.915190 -145.249301 -77.030411 -133.627375 7.486658 47.419301 -3.466266 0.000000 0.000000 0.000000
-39.843091 78.838302 370.782216 -13.445518 -34.428613 -16.478735 0.714221 2.392507 12.052239 -0.133892 -1.318305 -0.320910 23.067332 -8.564459 10.950765 0.000000 0.000000 0.000000 4.584289 22.978779 4.313193 41.876014 0.800349 -15.826933 4.175340 11.456943 -3.320889 -39.140088 -13.590071 1.769754 0.000000 0.000000 0.000000 0.000000 0.000000 0.000000 20.418379 67.259020 -4.238559 -18.719592 7.197343 -7.550623 -14.192076 3.803462 -20.391146 5.552591 -24.950721 22.492048 0.000000 0.000000 0.000000 0.000000 0.000000 0.000000 45.763185 56.489920 -46.866177 -28.320554 -35.133960 11.102946 -15.834037 -37.913196 19.393840 0.000000 0.000000 0.000000 -167.800123 63.369105 -173.283864 -151.682671 -75.868265 -140.279540 3.500993 46.555809 -0.299334 0.000000 0.000000 0.000000
-39.794358 78.352001 371.537004 -13.132916 -35.958528 -12.678704 0.538763 1.854040 8.239963 -0.233541 -1.352576 -0.288038 21.777687 -6.909068 11.442067 0.000000 0.000000 0.000000 4.675646 23.013042 4.702262 43.648763 1.988161 -17.979013 3.200780 11.668035 -3.281826 -37.659184 -12.347214 2.115846 0.000000 0.000000 0.000000 0.000000 0.000000 0.000000 16.401162 70.318720 -1.830417 -17.749023 4.293541 -7.375689 -10.306281 2.857117 -17.247304 8.024808 -23.233804 20.938838 0.000000 0.000000 0.000000 0.000000 0.000000 0.000000 50.759957 55.673734 -53.780428 -28.048074 -36.623234 10.724330 -17.112084 -40.498207 20.762165 0.000000 0.000000 0.000000 -174.809025 60.846887 -166.174825 -155.881534 -74.753512 -144.678419 -0.168691 46.159069 2.884952 0.000000 0.000000 0.000000
-39.182023 77.448625 371.389793 -11.966944 -36.270825 -9.377153 0.202723 1.067120 5.395258 -0.242298 -1.285593 -0.246035 19.560465 -5.475212 12.222623 0.000000 0.000000 0.000000 3.326567 22.744307 5.667239 45.521193 2.428586 -19.459101 4.104278 11.361417 -3.434280 -37.478234 -11.998824 2.169746 0.000000 0.000000 0.000000 0.000000 0.000000 0.000000 9.632150 71.205378 2.666266 -15.815053 3.566187 -6.081590 -4.210051 0.972394 -12.951869 4.677793 -21.520523 17.414948 0.000000 0.000000 0.000000 0.000000 0.000000 0.000000 52.335984 54.952214 -56.964838 -27.306101 -37.882259 10.287390 -17.521064 -41.597288 21.926589 0.000000 0.000000 0.000000 -178.251591 59.023255 -163.574245 -161.300492 -73.369742 -150.807767 -3.018474 46.425557 5.481060 0.000000 0.000000 0.000000
-38.113772 75.930226 369.886926 -9.935758 -35.316207 -6.083479 -0.437594 -0.328665 3.019291 -0.065888 -0.589857 -0.190703 17.996268 -4.243358 11.932510 0.000000 0.000000 0.000000 1.594313 20.402401 6.767900 45.993701 3.299814 -21.067316 5.410599 11.766239 -3.970900 -38.020426 -13.053098 1.938240 0.000000 0.000000 0.000000 0.000000 0.000000 0.000000 1.968221 70.079398 7.553861 -13.030810 3.505831 -4.230880 -3.182183 3.025910 -11.601377 6.080973 -24.562262 15.893009 0.000000 0.000000 0.000000 0.000000 0.000000 0.000000 51.528565 54.235684 -57.871021 -26.120746 -39.225102 9.915152 -17.226864 -41.111934 22.455971 0.000000 0.000000 0.000000 179.406967 58.405639 -162.917265 -166.850603 -71.665723 -157.320314 -4.723441 47.267611 7.071206 0.000000 0.000000 0.000000
-37.858953 74.835894 369.148984 -9.193330 -35.452854 -3.026773 -0.642072 -0.761908 0.234555 -0.018149 -0.102818 -0.146647 18.534815 -3.949221 11.140151 0.000000 0.000000 0.000000 -0.331400 19.149930 8.138694 46.772964 3.502434 -22.098650 10.240413 10.966069 -4.794823 -40.055701 -13.272927 1.853795 0.000000 0.000000 0.000000 0.000000 0.000000 0.000000 -4.703731 70.300940 12.202534 -11.445046 3.066383 -3.155655 -2.531136 2.077501 -11.409276 8.273540 -25.786822 15.281051 0.000000 0.000000 0.000000 0.000000 0.000000 0.000000 55.121347 53.980791 -63.041389 -24.806357 -41.509167 10.132262 -17.713928 -40.415203 21.030126 0.000000 0.000000 0.000000 176.178071 56.814929 -159.856948 -170.286314 -70.150237 -161.107289 -6.611890 47.547542 8.555251 0.000000 0.000000 0.000000
-38.053439 74.040752 368.604194 -9.060497 -35.809922 -0.369009 -0.741241 -0.831407 -2.391491 0.027608 0.230495 -0.131486 19.538031 -4.630252 10.852528 0.000000 0.000000 0.000000 -1.872766 18.744884 9.249103 48.106368 2.672639 -22.564391 12.965387 10.691425 -5.390736 -38.845364 -13.551098 1.645074 0.000000 0.000000 0.000000 0.000000 0.000000 0.000000 -8.579334 70.270043 14.947561 -10.176334 2.963695 -2.294977 -4.209720 4.939960 -12.239128 8.422253 -29.929443 15.447016 0.000000 0.000000 0.000000 0.000000 0.000000 0.000000 57.901468 52.799909 -66.598388 -23.663925 -41.656877 10.686788 -22.496981 -44.727019 17.759041 0.000000 0.000000 0.000000 173.023188 55.356385 -156.085950 -172.409602 -68.996160 -163.189027 -8.526201 47.847978 10.026325 0.000000 0.000000 0.000000
-38.672478 73.639343 368.360896 -9.434416 -36.517141 0.687338 -0.614160 -0.846211 -3.678648 0.158094 0.400747 -0.155729 23.103564 -4.687899 8.285531 0.000000 0.000000 0.000000 -4.458768 19.137172 11.093614 51.934974 0.786724 -23.285198 14.445494 10.210870 -5.576345 -37.794625 -11.529904 1.832141 0.000000 0.000000 0.000000 0.000000 0.000000 0.000000 -10.243679 69.795221 15.861175 -9.708695 4.474491 -1.321431 -6.617961 6.271612 -14.039272 5.414861 -35.473422 13.927625 0.000000 0.000000 0.000000 0.000000 0.000000 0.000000 58.625471 51.631746 -67.231784 -23.158766 -41.011652 11.191551 -24.856543 -46.340329 16.931009 0.000000 0.000000 0.000000 171.436278 54.403275 -153.678471 -173.498280 -68.494737 -163.895812 -10.649249 48.104782 11.664722 0.000000 0.000000 0.000000
-39.632720 73.848879 368.613375 -10.325056 -37.669868 0.681953 -0.180911 -0.946043 -4.236398 0.397812 0.385373 -0.225030 28.303762 -5.625359 4.985217 0.000000 0.000000 0.000000 -7.902867 20.564426 13.589164 57.630693 -1.861195 -23.909645 14.414564 11.000970 -6.223859 -36.222152 -12.400844 1.633957 0.000000 0.000000 0.000000 0.000000 0.000000 0.000000 -12.566669 69.888771 17.363752 -9.559682 6.441970 -0.267223 -8.480718 6.312477 -15.911465 7.130136 -37.925872 14.494218 0.000000 0.000000 0.000000 0.000000 0.000000 0.000000 59.498952 51.073877 -67.581357 -22.728642 -40.860036 11.722858 -26.520579 -47.022967 16.733910 0.000000 0.000000 0.000000 170.720588 53.561390 -151.836409 -173.785530 -68.603893 -163.566356 -12.886737 47.937405 13.342440 0.000000 0.000000 0.000000
-40.328364 73.507675 368.524961 -10.428113 -38.493631 1.251070 0.205576 -0.707901 -5.016025 0.433075 0.383070 -0.219580 33.970924 -6.430938 0.327403 0.000000 0.000000 0.000000 -12.305021 20.821874 16.605199 64.338586 -4.550413 -24.663374 13.723848 11.699108 -6.679445 -34.720508 -11.570930 1.715298 0.000000 0.000000 0.000000 0.000000 0.000000 0.000000 -13.194231 68.787627 17.072754 -10.670861 10.200569 0.933507 -10.289704 3.635621 -18.941555 8.787394 -36.004562 16.991277 0.000000 0.000000 0.000000 0.000000 0.000000 0.000000 59.248860 50.386875 -67.314439 -22.434121 -39.948574 11.987670 -24.182392 -44.102209 18.593447 0.000000 0.000000 0.000000 169.870206 52.841663 -150.685897 -175.105051 -68.495508 -164.602638 -14.746789 48.078350 14.652422 0.000000 0.000000 0.000000
-40.924146 73.164950 368.424697 -10.351866 -39.115922 1.243769 0.604698 -0.219219 -5.115766 0.311953 0.349295 -0.168372 37.266598 -6.462746 -3.120451 0.000000 0.000000 0.000000 -16.637302 20.860319 19.475441 70.841531 -7.030028 -24.767733 13.301384 11.609859 -6.659449 -29.872275 -4.043164 1.614562 0.000000 0.000000 0.000000 0.000000 0.000000 0.000000 -13.266740 67.644116 16.462935 -11.321281 12.985707 1.954262 -12.793528 1.345301 -22.232621 7.294598 -36.594570 17.144584 0.000000 0.000000 0.000000 0.000000 0.000000 0.000000 57.145934 49.597370 -64.967152 -22.729631 -38.551887 11.857063 -22.964459 -42.497002 19.935703 0.000000 0.000000 0.000000 170.368657 52.071824 -151.362717 -177.248702 -67.665918 -166.615174 -16.162167 48.616324 15.525686 0.000000 0.000000 0.000000
-41.380726 72.856361 368.344655 -10.270669 -39.748906 0.461847 0.624655 -0.530735 -4.397699 0.284646 0.204149 -0.159077 37.281708 -4.925793 -4.458505 0.000000 0.000000 0.000000 -20.311188 20.939856 22.384986 77.048484 -8.684643 -25.503947 13.084135 11.211202 -6.451851 -28.587364 1.309270 1.239731 0.000000 0.000000 0.000000 0.000000 0.000000 0.000000 -11.905843 66.851700 14.937253 -12.587023 14.663249 2.426729 -15.575040 1.579937 -24.740090 15.027166 -33.576896 21.675490 0.000000 0.000000 0.000000 0.000000 0.000000 0.000000 55.669702 49.901554 -63.289093 -22.868358 -38.137196 11.804299 -17.871509 -35.918997 23.273837 0.000000 0.000000 0.000000 172.076526 51.286439 -153.601492 -179.193844 -66.798437 -168.608364 -17.450029 48.665945 16.255307 0.000000 0.000000 0.000000
-41.727187 72.708930 368.381500 -10.021760 -40.382985 -0.389236 0.786436 -0.783608 -3.580152 0.416857 0.245508 -0.176185 37.110262 -2.870895 -6.323235 0.000000 0.000000 0.000000 -23.381904 20.922211 24.616186 82.557473 -9.666785 -26.206899 12.705118 10.102900 -5.586574 -29.240420 1.562876 0.981140 0.000000 0.000000 0.000000 0.000000 0.000000 0.000000 -12.823782 65.904277 14.855730 -12.002076 16.250428 3.513535 -20.951862 2.259454 -29.049609 21.419210 -30.692911 25.748631 0.000000 0.000000 0.000000 0.000000 0.000000 0.000000 54.310946 50.610770 -61.876717 -22.923235 -38.092914 11.713884 -16.135006 -32.941919 24.211852 0.000000 0.000000 0.000000 173.850739 50.686874 -156.229917 178.841550 -66.303885 -170.811557 -18.603215 48.536544 16.829361 0.000000 0.000000 0.000000
-41.906569 72.590987 368.535154 -9.650781 -40.839865 -1.554073 0.944369 -0.828717 -2.359721 0.561772 0.289500 -0.197860 35.801162 -0.536721 -7.200618 0.000000 0.000000 0.000000 -25.834585 20.514578 26.272755 85.947078 -10.173558 -26.696854 13.403070 9.381023 -5.206251 -32.128028 1.358261 1.147570 0.000000 0.000000 0.000000 0.000000 0.000000 0.000000 -14.169937 64.821501 15.058434 -11.151436 17.275750 4.444641 -21.232218 -0.723781 -29.484776 21.346566 -26.658927 25.721258 0.000000 0.000000 0.000000 0.000000 0.000000 0.000000 52.909036 52.029913 -60.469382 -22.592279 -38.386494 11.730038 -15.347302 -30.992441 24.351535 0.000000 0.000000 0.000000 175.961616 50.383166 -159.498314 177.280501 -65.711390 -172.712038 -19.796797 48.688842 17.703023 0.000000 0.000000 0.000000
-41.930340 72.618487 368.639559 -9.009221 -41.520056 -1.487122 0.977217 -0.533149 -2.217936 0.583674 0.463710 -0.174554 34.734862 0.911063 -7.575430 0.000000 0.000000 0.000000 -25.784539 18.958391 26.211375 85.847127 -9.558563 -28.657014 15.161441 8.824569 -5.145094 -38.558749 -1.680504 1.837541 0.000000 0.000000 0.000000 0.000000 0.000000 0.000000 -16.166382 64.023383 15.871609 -10.064635 17.620444 5.157497 -18.631863 -3.707363 -27.357047 19.508255 -23.126749 24.370847 0.000000 0.000000 0.000000 0.000000 0.000000 0.000000 53.107350 53.496738 -61.287606 -21.633144 -39.091244 11.946339 -15.832680 -30.662860 23.673275 0.000000 0.000000 0.000000 176.770284 49.801963 -161.423804 175.535228 -65.263830 -174.994918 -20.798151 48.651987 18.329417 0.000000 0.000000 0.000000
